<svg xmlns="http://www.w3.org/2000/svg" xmlns:xlink="http://www.w3.org/1999/xlink" width="39" height="34" viewBox="0 0 39 34"><defs><path id="pxcva" d="M363.49 5480.703l17.417-10.728c.313-.192.635.231.367.48l-14.375 13.363a2.98 2.98 0 0 0-.924 1.783l-.49 3.629c-.064.484-.745.532-.878.063l-1.884-6.617a1.754 1.754 0 0 1 .767-1.973zm-11.806-1.556l8.912 3.327 3.45 11.094c.22.71 1.089.973 1.666.501l4.968-4.05a1.482 1.482 0 0 1 1.806-.05l8.96 6.505a1.05 1.05 0 0 0 1.646-.635l6.564-31.573a1.05 1.05 0 0 0-1.407-1.194l-36.576 14.11c-.902.348-.895 1.626.01 1.965z"/></defs><g><g transform="translate(-351 -5463)"><use fill="#6a6a6a" xlink:href="#pxcva"/></g></g></svg>