<svg xmlns="http://www.w3.org/2000/svg" xmlns:xlink="http://www.w3.org/1999/xlink" width="52" height="30" viewBox="0 0 52 30"><defs><path id="27bka" d="M472.815 5491.094c-.137-.23-.99-2.083-5.092-5.89-4.294-3.987-3.717-3.34 1.455-10.233 3.15-4.198 4.41-6.762 4.016-7.858-.375-1.045-2.692-.77-2.692-.77l-7.705.045s-.57-.076-.996.177c-.414.25-.68.827-.68.827s-1.22 3.25-2.849 6.012c-3.432 5.83-4.807 6.137-5.368 5.775-1.304-.843-.977-3.391-.977-5.198 0-5.65.855-8.006-1.67-8.615-.84-.202-1.455-.336-3.599-.359-2.75-.029-5.08.01-6.397.654-.878.43-1.554 1.388-1.14 1.442.51.067 1.663.311 2.275 1.144.792 1.074.763 3.49.763 3.49s.455 6.65-1.061 7.477c-1.042.567-2.468-.59-5.528-5.88-1.567-2.709-2.753-5.705-2.753-5.705s-.228-.558-.635-.856c-.493-.362-1.186-.477-1.186-.477l-7.326.044s-1.099.032-1.503.51c-.359.426-.028 1.304-.028 1.304s5.736 13.419 12.229 20.184c5.958 6.201 12.72 5.794 12.72 5.794h3.063s.927-.102 1.398-.612c.435-.468.42-1.346.42-1.346s-.061-4.112 1.849-4.717c1.88-.597 4.297 3.973 6.858 5.733 1.935 1.33 3.406 1.038 3.406 1.038l6.85-.096s3.582-.221 1.883-3.038z"/></defs><g><g transform="translate(-422 -5465)"><use fill="#6a6a6a" xlink:href="#27bka"/></g></g></svg>