<svg xmlns="http://www.w3.org/2000/svg" xmlns:xlink="http://www.w3.org/1999/xlink" width="36" height="37" viewBox="0 0 36 37"><defs><path id="nfe6a" d="M311.379 5485.161c-.433 1.222-2.15 2.236-3.52 2.532-.938.2-2.162.358-6.283-1.35-5.271-2.184-8.666-7.54-8.93-7.888-.254-.347-2.13-2.836-2.13-5.41 0-2.574 1.307-3.827 1.834-4.366.432-.441 1.148-.643 1.834-.643.222 0 .421.011.6.02.528.023.792.054 1.14.886.432 1.042 1.486 3.616 1.612 3.88.128.265.255.624.076.972-.168.358-.316.518-.58.823-.265.305-.516.538-.781.865-.242.285-.516.59-.21 1.117.304.515 1.358 2.235 2.91 3.616 2.002 1.783 3.625 2.352 4.206 2.594.432.18.948.137 1.264-.2.402-.432.897-1.15 1.402-1.856.358-.506.811-.57 1.287-.39.484.168 3.047 1.435 3.574 1.697.526.265.874.39 1.002.613.125.222.125 1.264-.307 2.488zm-10.438-25.329h-.008c-9.89 0-17.933 8.045-17.933 17.937 0 3.924 1.265 7.56 3.415 10.513l-2.236 6.664 6.895-2.204a17.782 17.782 0 0 0 9.868 2.964c9.89 0 17.932-8.047 17.932-17.937s-8.042-17.937-17.933-17.937z"/></defs><g><g transform="translate(-283 -5459)"><use fill="#6a6a6a" xlink:href="#nfe6a"/></g></g></svg>