<svg width="39" height="34" viewBox="0 0 39 34" fill="none" xmlns="http://www.w3.org/2000/svg">
<path d="M12.4901 17.7031L29.9071 6.97509C30.2201 6.78309 30.5421 7.20608 30.2741 7.45508L15.8991 20.8179C15.3941 21.2874 15.0676 21.9177 14.9751 22.6011L14.4851 26.23C14.4211 26.714 13.7401 26.762 13.6071 26.293L11.7231 19.6758C11.6186 19.3083 11.637 18.9167 11.7754 18.5605C11.9139 18.2044 12.1648 17.9036 12.4901 17.7031V17.7031ZM0.68411 16.147L9.59613 19.4741L13.0461 30.5679C13.2661 31.2779 14.1351 31.5408 14.7121 31.0688L19.6801 27.019C19.9335 26.8128 20.248 26.6961 20.5746 26.687C20.9012 26.678 21.2217 26.7773 21.4861 26.9692L30.4461 33.4741C30.588 33.5774 30.7534 33.6432 30.9274 33.666C31.1014 33.6889 31.2783 33.6681 31.442 33.605C31.6058 33.5418 31.751 33.4385 31.8646 33.3047C31.9782 33.1709 32.0564 33.0107 32.0921 32.8389L38.6561 1.26611C38.6948 1.08116 38.6828 0.889166 38.6215 0.710446C38.5602 0.531727 38.4518 0.37274 38.3077 0.250485C38.1637 0.128231 37.9893 0.0470458 37.803 0.0156221C37.6167 -0.0158016 37.4253 0.00353441 37.2491 0.0717744L0.673123 14.1821C-0.228877 14.5301 -0.221867 15.808 0.683133 16.147H0.68411Z" fill="#6A6A6A"/>
</svg>
