<svg width="52" height="30" viewBox="0 0 52 30" fill="none" xmlns="http://www.w3.org/2000/svg">
<path d="M50.8152 26.0941C50.6782 25.8641 49.8251 24.011 45.7231 20.204C41.4291 16.217 42.0062 16.8641 47.1782 9.97105C50.3282 5.77305 51.5882 3.20865 51.1942 2.11265C50.8192 1.06765 48.5022 1.34263 48.5022 1.34263L40.7972 1.38804C40.7972 1.38804 40.2272 1.3118 39.8012 1.5648C39.3872 1.8148 39.1212 2.39195 39.1212 2.39195C39.1212 2.39195 37.9012 5.64167 36.2722 8.40367C32.8402 14.2337 31.4651 14.5411 30.9041 14.1791C29.6001 13.3361 29.9272 10.7878 29.9272 8.98082C29.9272 3.33082 30.7821 0.975069 28.2571 0.366069C27.4171 0.164069 26.8021 0.0296944 24.6581 0.00669437C21.9081 -0.0223056 19.5781 0.0169913 18.2611 0.660991C17.3831 1.09099 16.7072 2.04889 17.1212 2.10289C17.6312 2.16989 18.7842 2.41393 19.3962 3.24693C20.1882 4.32093 20.1592 6.73667 20.1592 6.73667C20.1592 6.73667 20.6141 13.3867 19.0981 14.2137C18.0561 14.7807 16.6302 13.6238 13.5702 8.33384C12.0032 5.62484 10.8171 2.62876 10.8171 2.62876C10.8171 2.62876 10.5892 2.07081 10.1822 1.77281C9.68916 1.41081 8.99616 1.29576 8.99616 1.29576L1.67017 1.3397C1.67017 1.3397 0.571149 1.37196 0.167149 1.84996C-0.191851 2.27596 0.139164 3.15367 0.139164 3.15367C0.139164 3.15367 5.87517 16.5727 12.3682 23.3377C18.3262 29.5387 25.0882 29.1317 25.0882 29.1317H28.1512C28.1512 29.1317 29.0782 29.0299 29.5492 28.5199C29.9842 28.0519 29.9692 27.1737 29.9692 27.1737C29.9692 27.1737 29.9081 23.0619 31.8181 22.4569C33.6981 21.8599 36.1152 26.4298 38.6762 28.1898C40.6112 29.5198 42.0822 29.2279 42.0822 29.2279L48.9322 29.1317C48.9322 29.1317 52.5142 28.9111 50.8152 26.0941V26.0941Z" fill="#6A6A6A"/>
</svg>
