<svg width="36" height="36" viewBox="0 0 36 36" fill="none" xmlns="http://www.w3.org/2000/svg">
<path d="M28.379 25.3291C27.946 26.5511 26.229 27.5648 24.859 27.8608C23.921 28.0608 22.697 28.2187 18.576 26.5107C13.305 24.3267 9.91 18.971 9.646 18.623C9.392 18.276 7.51599 15.7869 7.51599 13.2129C7.51599 10.6389 8.82301 9.38617 9.35001 8.84717C9.78201 8.40617 10.498 8.2041 11.184 8.2041C11.406 8.2041 11.605 8.21512 11.784 8.22412C12.312 8.24712 12.576 8.27786 12.924 9.10986C13.356 10.1519 14.41 12.7257 14.536 12.9897C14.664 13.2547 14.791 13.6139 14.612 13.9619C14.444 14.3199 14.296 14.4802 14.032 14.7852C13.767 15.0902 13.516 15.3229 13.251 15.6499C13.009 15.9349 12.735 16.2401 13.041 16.7671C13.345 17.2821 14.399 19.0018 15.951 20.3828C17.953 22.1658 19.576 22.7351 20.157 22.9771C20.589 23.1571 21.105 23.1139 21.421 22.7769C21.823 22.3449 22.318 21.6269 22.823 20.9209C23.181 20.4149 23.634 20.3508 24.11 20.5308C24.594 20.6988 27.157 21.966 27.684 22.228C28.21 22.493 28.558 22.6178 28.686 22.8408C28.811 23.0628 28.811 24.1051 28.379 25.3291V25.3291ZM17.941 0H17.933C8.04301 0 0 8.04501 0 17.937C0 21.861 1.26501 25.4972 3.41501 28.4502L1.17899 35.1138L8.07401 32.9102C10.9987 34.8504 14.4322 35.8815 17.942 35.874C27.832 35.874 35.874 27.827 35.874 17.937C35.874 8.04701 27.832 0 17.941 0V0Z" fill="#6A6A6A"/>
</svg>
